%TF.GenerationSoftware,KiCad,Pcbnew,8.99.0-unknown*%
%TF.CreationDate,2024-04-30T21:24:50-04:00*%
%TF.ProjectId,reflowControl,7265666c-6f77-4436-9f6e-74726f6c2e6b,rev?*%
%TF.SameCoordinates,Original*%
%TF.FileFunction,Soldermask,Top*%
%TF.FilePolarity,Negative*%
%FSLAX46Y46*%
G04 Gerber Fmt 4.6, Leading zero omitted, Abs format (unit mm)*
G04 Created by KiCad (PCBNEW 8.99.0-unknown) date 2024-04-30 21:24:50*
%MOMM*%
%LPD*%
G01*
G04 APERTURE LIST*
G04 Aperture macros list*
%AMRoundRect*
0 Rectangle with rounded corners*
0 $1 Rounding radius*
0 $2 $3 $4 $5 $6 $7 $8 $9 X,Y pos of 4 corners*
0 Add a 4 corners polygon primitive as box body*
4,1,4,$2,$3,$4,$5,$6,$7,$8,$9,$2,$3,0*
0 Add four circle primitives for the rounded corners*
1,1,$1+$1,$2,$3*
1,1,$1+$1,$4,$5*
1,1,$1+$1,$6,$7*
1,1,$1+$1,$8,$9*
0 Add four rect primitives between the rounded corners*
20,1,$1+$1,$2,$3,$4,$5,0*
20,1,$1+$1,$4,$5,$6,$7,0*
20,1,$1+$1,$6,$7,$8,$9,0*
20,1,$1+$1,$8,$9,$2,$3,0*%
G04 Aperture macros list end*
%ADD10C,0.010000*%
%ADD11R,1.524000X0.406400*%
%ADD12R,1.600000X1.600000*%
%ADD13O,1.600000X1.600000*%
%ADD14R,1.200000X0.400000*%
%ADD15RoundRect,0.150000X-0.512500X-0.150000X0.512500X-0.150000X0.512500X0.150000X-0.512500X0.150000X0*%
%ADD16R,1.500000X0.550000*%
%ADD17R,0.550000X1.500000*%
%ADD18RoundRect,0.250000X-0.337500X-0.475000X0.337500X-0.475000X0.337500X0.475000X-0.337500X0.475000X0*%
%ADD19RoundRect,0.237500X-0.300000X-0.237500X0.300000X-0.237500X0.300000X0.237500X-0.300000X0.237500X0*%
G04 APERTURE END LIST*
D10*
%TO.C,J1*%
X190496000Y-78743500D02*
X188819000Y-78743500D01*
X188819000Y-76716500D01*
X190496000Y-76716500D01*
X190496000Y-78743500D01*
G36*
X190496000Y-78743500D02*
G01*
X188819000Y-78743500D01*
X188819000Y-76716500D01*
X190496000Y-76716500D01*
X190496000Y-78743500D01*
G37*
X192546000Y-78743500D02*
X190869000Y-78743500D01*
X190869000Y-76716500D01*
X192546000Y-76716500D01*
X192546000Y-78743500D01*
G36*
X192546000Y-78743500D02*
G01*
X190869000Y-78743500D01*
X190869000Y-76716500D01*
X192546000Y-76716500D01*
X192546000Y-78743500D01*
G37*
X188366500Y-74120000D02*
X188395500Y-74123000D01*
X188424500Y-74129000D01*
X188453500Y-74136000D01*
X188481500Y-74144000D01*
X188509500Y-74154000D01*
X188536500Y-74165000D01*
X188563500Y-74178000D01*
X188589500Y-74192000D01*
X188614500Y-74207000D01*
X188638500Y-74224000D01*
X188662500Y-74242000D01*
X188684500Y-74261000D01*
X188705500Y-74282000D01*
X188726500Y-74303000D01*
X188745500Y-74325000D01*
X188763500Y-74349000D01*
X188780500Y-74373000D01*
X188795500Y-74398000D01*
X188809500Y-74424000D01*
X188822500Y-74451000D01*
X188833500Y-74478000D01*
X188843500Y-74506000D01*
X188851500Y-74534000D01*
X188858500Y-74563000D01*
X188864500Y-74592000D01*
X188867500Y-74621000D01*
X188870500Y-74651000D01*
X188870500Y-74680000D01*
X188870500Y-75181000D01*
X188866500Y-75203000D01*
X188861500Y-75223000D01*
X188854500Y-75243000D01*
X188848500Y-75263000D01*
X188840500Y-75283000D01*
X188831500Y-75302000D01*
X188822500Y-75321000D01*
X188812500Y-75339000D01*
X188801500Y-75357000D01*
X188790500Y-75375000D01*
X188778500Y-75392000D01*
X188765500Y-75409000D01*
X188751500Y-75425000D01*
X188737500Y-75440000D01*
X188722500Y-75455000D01*
X188707500Y-75469000D01*
X188691500Y-75483000D01*
X188674500Y-75496000D01*
X188657500Y-75508000D01*
X188640500Y-75520000D01*
X188622500Y-75531000D01*
X188603500Y-75541000D01*
X188584500Y-75550000D01*
X188565500Y-75559000D01*
X188546500Y-75567000D01*
X188526500Y-75574000D01*
X188506500Y-75580000D01*
X188486500Y-75585000D01*
X188465500Y-75590000D01*
X188446500Y-75594000D01*
X188446000Y-78943500D01*
X188446500Y-78944000D01*
X186982500Y-78944000D01*
X186953500Y-78943000D01*
X186923500Y-78940000D01*
X186894500Y-78937000D01*
X186865500Y-78931000D01*
X186836500Y-78924000D01*
X186808500Y-78916000D01*
X186780500Y-78906000D01*
X186753500Y-78895000D01*
X186726500Y-78882000D01*
X186700500Y-78868000D01*
X186675500Y-78853000D01*
X186651500Y-78836000D01*
X186627500Y-78818000D01*
X186605500Y-78799000D01*
X186584500Y-78778000D01*
X186563500Y-78757000D01*
X186544500Y-78735000D01*
X186526500Y-78711000D01*
X186509500Y-78687000D01*
X186494500Y-78662000D01*
X186480500Y-78636000D01*
X186467500Y-78609000D01*
X186456500Y-78582000D01*
X186446500Y-78554000D01*
X186438500Y-78526000D01*
X186431500Y-78497000D01*
X186425500Y-78468000D01*
X186422500Y-78439000D01*
X186419500Y-78409000D01*
X186419500Y-78380000D01*
X186419500Y-76704000D01*
X187027500Y-74524000D01*
X187036500Y-74496000D01*
X187044500Y-74473000D01*
X187054500Y-74451000D01*
X187065500Y-74429000D01*
X187076500Y-74407000D01*
X187089500Y-74386000D01*
X187102500Y-74365000D01*
X187116500Y-74345000D01*
X187131500Y-74326000D01*
X187147500Y-74307000D01*
X187164500Y-74290000D01*
X187181500Y-74272000D01*
X187200500Y-74256000D01*
X187218500Y-74240000D01*
X187238500Y-74225000D01*
X187258500Y-74211000D01*
X187279500Y-74198000D01*
X187300500Y-74186000D01*
X187322500Y-74175000D01*
X187344500Y-74164000D01*
X187367500Y-74155000D01*
X187390500Y-74147000D01*
X187413500Y-74139000D01*
X187437500Y-74133000D01*
X187461500Y-74128000D01*
X187485500Y-74123000D01*
X187509500Y-74120000D01*
X187534500Y-74118000D01*
X187558500Y-74117000D01*
X187581500Y-74117000D01*
X188307500Y-74117000D01*
X188336500Y-74117000D01*
X188366500Y-74120000D01*
G36*
X188366500Y-74120000D02*
G01*
X188395500Y-74123000D01*
X188424500Y-74129000D01*
X188453500Y-74136000D01*
X188481500Y-74144000D01*
X188509500Y-74154000D01*
X188536500Y-74165000D01*
X188563500Y-74178000D01*
X188589500Y-74192000D01*
X188614500Y-74207000D01*
X188638500Y-74224000D01*
X188662500Y-74242000D01*
X188684500Y-74261000D01*
X188705500Y-74282000D01*
X188726500Y-74303000D01*
X188745500Y-74325000D01*
X188763500Y-74349000D01*
X188780500Y-74373000D01*
X188795500Y-74398000D01*
X188809500Y-74424000D01*
X188822500Y-74451000D01*
X188833500Y-74478000D01*
X188843500Y-74506000D01*
X188851500Y-74534000D01*
X188858500Y-74563000D01*
X188864500Y-74592000D01*
X188867500Y-74621000D01*
X188870500Y-74651000D01*
X188870500Y-74680000D01*
X188870500Y-75181000D01*
X188866500Y-75203000D01*
X188861500Y-75223000D01*
X188854500Y-75243000D01*
X188848500Y-75263000D01*
X188840500Y-75283000D01*
X188831500Y-75302000D01*
X188822500Y-75321000D01*
X188812500Y-75339000D01*
X188801500Y-75357000D01*
X188790500Y-75375000D01*
X188778500Y-75392000D01*
X188765500Y-75409000D01*
X188751500Y-75425000D01*
X188737500Y-75440000D01*
X188722500Y-75455000D01*
X188707500Y-75469000D01*
X188691500Y-75483000D01*
X188674500Y-75496000D01*
X188657500Y-75508000D01*
X188640500Y-75520000D01*
X188622500Y-75531000D01*
X188603500Y-75541000D01*
X188584500Y-75550000D01*
X188565500Y-75559000D01*
X188546500Y-75567000D01*
X188526500Y-75574000D01*
X188506500Y-75580000D01*
X188486500Y-75585000D01*
X188465500Y-75590000D01*
X188446500Y-75594000D01*
X188446000Y-78943500D01*
X188446500Y-78944000D01*
X186982500Y-78944000D01*
X186953500Y-78943000D01*
X186923500Y-78940000D01*
X186894500Y-78937000D01*
X186865500Y-78931000D01*
X186836500Y-78924000D01*
X186808500Y-78916000D01*
X186780500Y-78906000D01*
X186753500Y-78895000D01*
X186726500Y-78882000D01*
X186700500Y-78868000D01*
X186675500Y-78853000D01*
X186651500Y-78836000D01*
X186627500Y-78818000D01*
X186605500Y-78799000D01*
X186584500Y-78778000D01*
X186563500Y-78757000D01*
X186544500Y-78735000D01*
X186526500Y-78711000D01*
X186509500Y-78687000D01*
X186494500Y-78662000D01*
X186480500Y-78636000D01*
X186467500Y-78609000D01*
X186456500Y-78582000D01*
X186446500Y-78554000D01*
X186438500Y-78526000D01*
X186431500Y-78497000D01*
X186425500Y-78468000D01*
X186422500Y-78439000D01*
X186419500Y-78409000D01*
X186419500Y-78380000D01*
X186419500Y-76704000D01*
X187027500Y-74524000D01*
X187036500Y-74496000D01*
X187044500Y-74473000D01*
X187054500Y-74451000D01*
X187065500Y-74429000D01*
X187076500Y-74407000D01*
X187089500Y-74386000D01*
X187102500Y-74365000D01*
X187116500Y-74345000D01*
X187131500Y-74326000D01*
X187147500Y-74307000D01*
X187164500Y-74290000D01*
X187181500Y-74272000D01*
X187200500Y-74256000D01*
X187218500Y-74240000D01*
X187238500Y-74225000D01*
X187258500Y-74211000D01*
X187279500Y-74198000D01*
X187300500Y-74186000D01*
X187322500Y-74175000D01*
X187344500Y-74164000D01*
X187367500Y-74155000D01*
X187390500Y-74147000D01*
X187413500Y-74139000D01*
X187437500Y-74133000D01*
X187461500Y-74128000D01*
X187485500Y-74123000D01*
X187509500Y-74120000D01*
X187534500Y-74118000D01*
X187558500Y-74117000D01*
X187581500Y-74117000D01*
X188307500Y-74117000D01*
X188336500Y-74117000D01*
X188366500Y-74120000D01*
G37*
X193830500Y-74118000D02*
X193855500Y-74120000D01*
X193879500Y-74123000D01*
X193903500Y-74128000D01*
X193927500Y-74133000D01*
X193951500Y-74139000D01*
X193974500Y-74147000D01*
X193997500Y-74155000D01*
X194020500Y-74164000D01*
X194042500Y-74175000D01*
X194064500Y-74186000D01*
X194085500Y-74198000D01*
X194106500Y-74211000D01*
X194126500Y-74225000D01*
X194146500Y-74240000D01*
X194164500Y-74256000D01*
X194183500Y-74272000D01*
X194200500Y-74290000D01*
X194217500Y-74307000D01*
X194233500Y-74326000D01*
X194248500Y-74345000D01*
X194262500Y-74365000D01*
X194275500Y-74386000D01*
X194288500Y-74407000D01*
X194299500Y-74429000D01*
X194310500Y-74451000D01*
X194320500Y-74473000D01*
X194328500Y-74496000D01*
X194337500Y-74524000D01*
X194945500Y-76704000D01*
X194945500Y-78380000D01*
X194945500Y-78409000D01*
X194942500Y-78439000D01*
X194939500Y-78468000D01*
X194933500Y-78497000D01*
X194926500Y-78526000D01*
X194918500Y-78554000D01*
X194908500Y-78582000D01*
X194897500Y-78609000D01*
X194884500Y-78636000D01*
X194870500Y-78662000D01*
X194855500Y-78687000D01*
X194838500Y-78711000D01*
X194820500Y-78735000D01*
X194801500Y-78757000D01*
X194780500Y-78778000D01*
X194759500Y-78799000D01*
X194737500Y-78818000D01*
X194713500Y-78836000D01*
X194689500Y-78853000D01*
X194664500Y-78868000D01*
X194638500Y-78882000D01*
X194611500Y-78895000D01*
X194584500Y-78906000D01*
X194556500Y-78916000D01*
X194528500Y-78924000D01*
X194499500Y-78931000D01*
X194470500Y-78937000D01*
X194441500Y-78940000D01*
X194411500Y-78943000D01*
X194382500Y-78944000D01*
X192918500Y-78944000D01*
X192919000Y-78943500D01*
X192918500Y-75594000D01*
X192899500Y-75590000D01*
X192878500Y-75585000D01*
X192858500Y-75580000D01*
X192838500Y-75574000D01*
X192818500Y-75567000D01*
X192799500Y-75559000D01*
X192780500Y-75550000D01*
X192761500Y-75541000D01*
X192742500Y-75531000D01*
X192724500Y-75520000D01*
X192707500Y-75508000D01*
X192690500Y-75496000D01*
X192673500Y-75483000D01*
X192657500Y-75469000D01*
X192642500Y-75455000D01*
X192627500Y-75440000D01*
X192613500Y-75425000D01*
X192599500Y-75409000D01*
X192586500Y-75392000D01*
X192574500Y-75375000D01*
X192563500Y-75357000D01*
X192552500Y-75339000D01*
X192542500Y-75321000D01*
X192533500Y-75302000D01*
X192524500Y-75283000D01*
X192516500Y-75263000D01*
X192510500Y-75243000D01*
X192503500Y-75223000D01*
X192498500Y-75203000D01*
X192494500Y-75181000D01*
X192494500Y-74680000D01*
X192494500Y-74651000D01*
X192497500Y-74621000D01*
X192500500Y-74592000D01*
X192506500Y-74563000D01*
X192513500Y-74534000D01*
X192521500Y-74506000D01*
X192531500Y-74478000D01*
X192542500Y-74451000D01*
X192555500Y-74424000D01*
X192569500Y-74398000D01*
X192584500Y-74373000D01*
X192601500Y-74349000D01*
X192619500Y-74325000D01*
X192638500Y-74303000D01*
X192659500Y-74282000D01*
X192680500Y-74261000D01*
X192702500Y-74242000D01*
X192726500Y-74224000D01*
X192750500Y-74207000D01*
X192775500Y-74192000D01*
X192801500Y-74178000D01*
X192828500Y-74165000D01*
X192855500Y-74154000D01*
X192883500Y-74144000D01*
X192911500Y-74136000D01*
X192940500Y-74129000D01*
X192969500Y-74123000D01*
X192998500Y-74120000D01*
X193028500Y-74117000D01*
X193057500Y-74117000D01*
X193783500Y-74117000D01*
X193806500Y-74117000D01*
X193830500Y-74118000D01*
G36*
X193830500Y-74118000D02*
G01*
X193855500Y-74120000D01*
X193879500Y-74123000D01*
X193903500Y-74128000D01*
X193927500Y-74133000D01*
X193951500Y-74139000D01*
X193974500Y-74147000D01*
X193997500Y-74155000D01*
X194020500Y-74164000D01*
X194042500Y-74175000D01*
X194064500Y-74186000D01*
X194085500Y-74198000D01*
X194106500Y-74211000D01*
X194126500Y-74225000D01*
X194146500Y-74240000D01*
X194164500Y-74256000D01*
X194183500Y-74272000D01*
X194200500Y-74290000D01*
X194217500Y-74307000D01*
X194233500Y-74326000D01*
X194248500Y-74345000D01*
X194262500Y-74365000D01*
X194275500Y-74386000D01*
X194288500Y-74407000D01*
X194299500Y-74429000D01*
X194310500Y-74451000D01*
X194320500Y-74473000D01*
X194328500Y-74496000D01*
X194337500Y-74524000D01*
X194945500Y-76704000D01*
X194945500Y-78380000D01*
X194945500Y-78409000D01*
X194942500Y-78439000D01*
X194939500Y-78468000D01*
X194933500Y-78497000D01*
X194926500Y-78526000D01*
X194918500Y-78554000D01*
X194908500Y-78582000D01*
X194897500Y-78609000D01*
X194884500Y-78636000D01*
X194870500Y-78662000D01*
X194855500Y-78687000D01*
X194838500Y-78711000D01*
X194820500Y-78735000D01*
X194801500Y-78757000D01*
X194780500Y-78778000D01*
X194759500Y-78799000D01*
X194737500Y-78818000D01*
X194713500Y-78836000D01*
X194689500Y-78853000D01*
X194664500Y-78868000D01*
X194638500Y-78882000D01*
X194611500Y-78895000D01*
X194584500Y-78906000D01*
X194556500Y-78916000D01*
X194528500Y-78924000D01*
X194499500Y-78931000D01*
X194470500Y-78937000D01*
X194441500Y-78940000D01*
X194411500Y-78943000D01*
X194382500Y-78944000D01*
X192918500Y-78944000D01*
X192919000Y-78943500D01*
X192918500Y-75594000D01*
X192899500Y-75590000D01*
X192878500Y-75585000D01*
X192858500Y-75580000D01*
X192838500Y-75574000D01*
X192818500Y-75567000D01*
X192799500Y-75559000D01*
X192780500Y-75550000D01*
X192761500Y-75541000D01*
X192742500Y-75531000D01*
X192724500Y-75520000D01*
X192707500Y-75508000D01*
X192690500Y-75496000D01*
X192673500Y-75483000D01*
X192657500Y-75469000D01*
X192642500Y-75455000D01*
X192627500Y-75440000D01*
X192613500Y-75425000D01*
X192599500Y-75409000D01*
X192586500Y-75392000D01*
X192574500Y-75375000D01*
X192563500Y-75357000D01*
X192552500Y-75339000D01*
X192542500Y-75321000D01*
X192533500Y-75302000D01*
X192524500Y-75283000D01*
X192516500Y-75263000D01*
X192510500Y-75243000D01*
X192503500Y-75223000D01*
X192498500Y-75203000D01*
X192494500Y-75181000D01*
X192494500Y-74680000D01*
X192494500Y-74651000D01*
X192497500Y-74621000D01*
X192500500Y-74592000D01*
X192506500Y-74563000D01*
X192513500Y-74534000D01*
X192521500Y-74506000D01*
X192531500Y-74478000D01*
X192542500Y-74451000D01*
X192555500Y-74424000D01*
X192569500Y-74398000D01*
X192584500Y-74373000D01*
X192601500Y-74349000D01*
X192619500Y-74325000D01*
X192638500Y-74303000D01*
X192659500Y-74282000D01*
X192680500Y-74261000D01*
X192702500Y-74242000D01*
X192726500Y-74224000D01*
X192750500Y-74207000D01*
X192775500Y-74192000D01*
X192801500Y-74178000D01*
X192828500Y-74165000D01*
X192855500Y-74154000D01*
X192883500Y-74144000D01*
X192911500Y-74136000D01*
X192940500Y-74129000D01*
X192969500Y-74123000D01*
X192998500Y-74120000D01*
X193028500Y-74117000D01*
X193057500Y-74117000D01*
X193783500Y-74117000D01*
X193806500Y-74117000D01*
X193830500Y-74118000D01*
G37*
X189646000Y-75793500D02*
X189119000Y-75793500D01*
X189119000Y-74316500D01*
X189646000Y-74316500D01*
X189646000Y-75793500D01*
G36*
X189646000Y-75793500D02*
G01*
X189119000Y-75793500D01*
X189119000Y-74316500D01*
X189646000Y-74316500D01*
X189646000Y-75793500D01*
G37*
X190296000Y-75793500D02*
X189769000Y-75793500D01*
X189769000Y-74316500D01*
X190296000Y-74316500D01*
X190296000Y-75793500D01*
G36*
X190296000Y-75793500D02*
G01*
X189769000Y-75793500D01*
X189769000Y-74316500D01*
X190296000Y-74316500D01*
X190296000Y-75793500D01*
G37*
X190946000Y-75793500D02*
X190419000Y-75793500D01*
X190419000Y-74316500D01*
X190946000Y-74316500D01*
X190946000Y-75793500D01*
G36*
X190946000Y-75793500D02*
G01*
X190419000Y-75793500D01*
X190419000Y-74316500D01*
X190946000Y-74316500D01*
X190946000Y-75793500D01*
G37*
X191596000Y-75793500D02*
X191069000Y-75793500D01*
X191069000Y-74316500D01*
X191596000Y-74316500D01*
X191596000Y-75793500D01*
G36*
X191596000Y-75793500D02*
G01*
X191069000Y-75793500D01*
X191069000Y-74316500D01*
X191596000Y-74316500D01*
X191596000Y-75793500D01*
G37*
X192246000Y-75793500D02*
X191719000Y-75793500D01*
X191719000Y-74316500D01*
X192246000Y-74316500D01*
X192246000Y-75793500D01*
G36*
X192246000Y-75793500D02*
G01*
X191719000Y-75793500D01*
X191719000Y-74316500D01*
X192246000Y-74316500D01*
X192246000Y-75793500D01*
G37*
%TD*%
D11*
%TO.C,Y1*%
X183923700Y-93625801D03*
X183923700Y-94275799D03*
X183923700Y-94925801D03*
X183923700Y-95575799D03*
X188546500Y-95575799D03*
X188546500Y-94925801D03*
X188546500Y-94275799D03*
X188546500Y-93625801D03*
%TD*%
D12*
%TO.C,U6*%
X172852500Y-97975000D03*
D13*
X172852500Y-100515000D03*
X172852500Y-103055000D03*
X180472500Y-103055000D03*
X180472500Y-100515000D03*
X180472500Y-97975000D03*
%TD*%
D14*
%TO.C,U5*%
X191762500Y-89017500D03*
X191762500Y-89652500D03*
X191762500Y-90287500D03*
X191762500Y-90922500D03*
X191762500Y-91557500D03*
X191762500Y-92192500D03*
X191762500Y-92827500D03*
X191762500Y-93462500D03*
X191762500Y-94097500D03*
X191762500Y-94732500D03*
X196962500Y-94732500D03*
X196962500Y-94097500D03*
X196962500Y-93462500D03*
X196962500Y-92827500D03*
X196962500Y-92192500D03*
X196962500Y-91557500D03*
X196962500Y-90922500D03*
X196962500Y-90287500D03*
X196962500Y-89652500D03*
X196962500Y-89017500D03*
%TD*%
D15*
%TO.C,U4*%
X191825000Y-98500000D03*
X191825000Y-99450000D03*
X191825000Y-100400000D03*
X194100000Y-100400000D03*
X194100000Y-98500000D03*
%TD*%
D12*
%TO.C,U3*%
X172852500Y-88775000D03*
D13*
X172852500Y-91315000D03*
X172852500Y-93855000D03*
X180472500Y-93855000D03*
X180472500Y-91315000D03*
X180472500Y-88775000D03*
%TD*%
D16*
%TO.C,U2*%
X172752500Y-75475000D03*
X172752500Y-76275000D03*
X172752500Y-77075000D03*
X172752500Y-77875000D03*
X172752500Y-78675000D03*
X172752500Y-79475000D03*
X172752500Y-80275000D03*
X172752500Y-81075000D03*
X172752500Y-81875000D03*
X172752500Y-82675000D03*
X172752500Y-83475000D03*
D17*
X174452500Y-85175000D03*
X175252500Y-85175000D03*
X176052500Y-85175000D03*
X176852500Y-85175000D03*
X177652500Y-85175000D03*
X178452500Y-85175000D03*
X179252500Y-85175000D03*
X180052500Y-85175000D03*
X180852500Y-85175000D03*
X181652500Y-85175000D03*
X182452500Y-85175000D03*
D16*
X184152500Y-83475000D03*
X184152500Y-82675000D03*
X184152500Y-81875000D03*
X184152500Y-81075000D03*
X184152500Y-80275000D03*
X184152500Y-79475000D03*
X184152500Y-78675000D03*
X184152500Y-77875000D03*
X184152500Y-77075000D03*
X184152500Y-76275000D03*
X184152500Y-75475000D03*
D17*
X182452500Y-73775000D03*
X181652500Y-73775000D03*
X180852500Y-73775000D03*
X180052500Y-73775000D03*
X179252500Y-73775000D03*
X178452500Y-73775000D03*
X177652500Y-73775000D03*
X176852500Y-73775000D03*
X176052500Y-73775000D03*
X175252500Y-73775000D03*
X174452500Y-73775000D03*
%TD*%
D11*
%TO.C,U1*%
X183923700Y-88358601D03*
X183923700Y-89008599D03*
X183923700Y-89658601D03*
X183923700Y-90308599D03*
X188546500Y-90308599D03*
X188546500Y-89658601D03*
X188546500Y-89008599D03*
X188546500Y-88358601D03*
%TD*%
D18*
%TO.C,C4*%
X183445000Y-101745000D03*
X185520000Y-101745000D03*
%TD*%
%TO.C,C3*%
X183445000Y-98735000D03*
X185520000Y-98735000D03*
%TD*%
D19*
%TO.C,C2*%
X186990000Y-84845000D03*
X188715000Y-84845000D03*
%TD*%
%TO.C,C1*%
X186990000Y-82335000D03*
X188715000Y-82335000D03*
%TD*%
M02*
