%TF.GenerationSoftware,KiCad,Pcbnew,8.99.0-unknown*%
%TF.CreationDate,2024-04-30T21:24:50-04:00*%
%TF.ProjectId,reflowControl,7265666c-6f77-4436-9f6e-74726f6c2e6b,rev?*%
%TF.SameCoordinates,Original*%
%TF.FileFunction,Soldermask,Bot*%
%TF.FilePolarity,Negative*%
%FSLAX46Y46*%
G04 Gerber Fmt 4.6, Leading zero omitted, Abs format (unit mm)*
G04 Created by KiCad (PCBNEW 8.99.0-unknown) date 2024-04-30 21:24:50*
%MOMM*%
%LPD*%
G01*
G04 APERTURE LIST*
%ADD10C,0.010000*%
%ADD11R,1.600000X1.600000*%
%ADD12O,1.600000X1.600000*%
G04 APERTURE END LIST*
D10*
%TO.C,J1*%
X193819500Y-74555000D02*
X193844500Y-74557000D01*
X193869500Y-74560000D01*
X193893500Y-74564000D01*
X193918500Y-74570000D01*
X193942500Y-74577000D01*
X193965500Y-74586000D01*
X193988500Y-74595000D01*
X194011500Y-74606000D01*
X194032500Y-74618000D01*
X194054500Y-74631000D01*
X194074500Y-74645000D01*
X194094500Y-74660000D01*
X194113500Y-74676000D01*
X194131500Y-74693000D01*
X194148500Y-74711000D01*
X194164500Y-74730000D01*
X194180500Y-74750000D01*
X194194500Y-74771000D01*
X194207500Y-74792000D01*
X194219500Y-74814000D01*
X194229500Y-74836000D01*
X194239500Y-74859000D01*
X194247500Y-74883000D01*
X194254500Y-74907000D01*
X194260500Y-74931000D01*
X194265500Y-74956000D01*
X194268500Y-74980000D01*
X194270500Y-75005000D01*
X194270500Y-75030000D01*
X194270500Y-75055000D01*
X194268500Y-75080000D01*
X194265500Y-75104000D01*
X194260500Y-75129000D01*
X194254500Y-75153000D01*
X194247500Y-75177000D01*
X194239500Y-75201000D01*
X194229500Y-75224000D01*
X194219500Y-75246000D01*
X194207500Y-75268000D01*
X194194500Y-75289000D01*
X194180500Y-75310000D01*
X194164500Y-75330000D01*
X194148500Y-75349000D01*
X194131500Y-75367000D01*
X194113500Y-75384000D01*
X194094500Y-75400000D01*
X194074500Y-75415000D01*
X194054500Y-75429000D01*
X194032500Y-75442000D01*
X194011500Y-75454000D01*
X193988500Y-75465000D01*
X193965500Y-75474000D01*
X193942500Y-75483000D01*
X193918500Y-75490000D01*
X193893500Y-75496000D01*
X193869500Y-75500000D01*
X193844500Y-75503000D01*
X193819500Y-75505000D01*
X193794500Y-75506000D01*
X192970500Y-75506000D01*
X192945500Y-75505000D01*
X192920500Y-75503000D01*
X192895500Y-75500000D01*
X192871500Y-75496000D01*
X192846500Y-75490000D01*
X192822500Y-75483000D01*
X192799500Y-75474000D01*
X192776500Y-75465000D01*
X192753500Y-75454000D01*
X192732500Y-75442000D01*
X192710500Y-75429000D01*
X192690500Y-75415000D01*
X192670500Y-75400000D01*
X192651500Y-75384000D01*
X192633500Y-75367000D01*
X192616500Y-75349000D01*
X192600500Y-75330000D01*
X192584500Y-75310000D01*
X192570500Y-75289000D01*
X192557500Y-75268000D01*
X192545500Y-75246000D01*
X192535500Y-75224000D01*
X192525500Y-75201000D01*
X192517500Y-75177000D01*
X192510500Y-75153000D01*
X192504500Y-75129000D01*
X192499500Y-75104000D01*
X192496500Y-75080000D01*
X192494500Y-75055000D01*
X192494500Y-75030000D01*
X192494500Y-75005000D01*
X192496500Y-74980000D01*
X192499500Y-74956000D01*
X192504500Y-74931000D01*
X192510500Y-74907000D01*
X192517500Y-74883000D01*
X192525500Y-74859000D01*
X192535500Y-74836000D01*
X192545500Y-74814000D01*
X192557500Y-74792000D01*
X192570500Y-74771000D01*
X192584500Y-74750000D01*
X192600500Y-74730000D01*
X192616500Y-74711000D01*
X192633500Y-74693000D01*
X192651500Y-74676000D01*
X192670500Y-74660000D01*
X192690500Y-74645000D01*
X192710500Y-74631000D01*
X192732500Y-74618000D01*
X192753500Y-74606000D01*
X192776500Y-74595000D01*
X192799500Y-74586000D01*
X192822500Y-74577000D01*
X192846500Y-74570000D01*
X192871500Y-74564000D01*
X192895500Y-74560000D01*
X192920500Y-74557000D01*
X192945500Y-74555000D01*
X192970500Y-74554000D01*
X193794500Y-74554000D01*
X193819500Y-74555000D01*
G36*
X193819500Y-74555000D02*
G01*
X193844500Y-74557000D01*
X193869500Y-74560000D01*
X193893500Y-74564000D01*
X193918500Y-74570000D01*
X193942500Y-74577000D01*
X193965500Y-74586000D01*
X193988500Y-74595000D01*
X194011500Y-74606000D01*
X194032500Y-74618000D01*
X194054500Y-74631000D01*
X194074500Y-74645000D01*
X194094500Y-74660000D01*
X194113500Y-74676000D01*
X194131500Y-74693000D01*
X194148500Y-74711000D01*
X194164500Y-74730000D01*
X194180500Y-74750000D01*
X194194500Y-74771000D01*
X194207500Y-74792000D01*
X194219500Y-74814000D01*
X194229500Y-74836000D01*
X194239500Y-74859000D01*
X194247500Y-74883000D01*
X194254500Y-74907000D01*
X194260500Y-74931000D01*
X194265500Y-74956000D01*
X194268500Y-74980000D01*
X194270500Y-75005000D01*
X194270500Y-75030000D01*
X194270500Y-75055000D01*
X194268500Y-75080000D01*
X194265500Y-75104000D01*
X194260500Y-75129000D01*
X194254500Y-75153000D01*
X194247500Y-75177000D01*
X194239500Y-75201000D01*
X194229500Y-75224000D01*
X194219500Y-75246000D01*
X194207500Y-75268000D01*
X194194500Y-75289000D01*
X194180500Y-75310000D01*
X194164500Y-75330000D01*
X194148500Y-75349000D01*
X194131500Y-75367000D01*
X194113500Y-75384000D01*
X194094500Y-75400000D01*
X194074500Y-75415000D01*
X194054500Y-75429000D01*
X194032500Y-75442000D01*
X194011500Y-75454000D01*
X193988500Y-75465000D01*
X193965500Y-75474000D01*
X193942500Y-75483000D01*
X193918500Y-75490000D01*
X193893500Y-75496000D01*
X193869500Y-75500000D01*
X193844500Y-75503000D01*
X193819500Y-75505000D01*
X193794500Y-75506000D01*
X192970500Y-75506000D01*
X192945500Y-75505000D01*
X192920500Y-75503000D01*
X192895500Y-75500000D01*
X192871500Y-75496000D01*
X192846500Y-75490000D01*
X192822500Y-75483000D01*
X192799500Y-75474000D01*
X192776500Y-75465000D01*
X192753500Y-75454000D01*
X192732500Y-75442000D01*
X192710500Y-75429000D01*
X192690500Y-75415000D01*
X192670500Y-75400000D01*
X192651500Y-75384000D01*
X192633500Y-75367000D01*
X192616500Y-75349000D01*
X192600500Y-75330000D01*
X192584500Y-75310000D01*
X192570500Y-75289000D01*
X192557500Y-75268000D01*
X192545500Y-75246000D01*
X192535500Y-75224000D01*
X192525500Y-75201000D01*
X192517500Y-75177000D01*
X192510500Y-75153000D01*
X192504500Y-75129000D01*
X192499500Y-75104000D01*
X192496500Y-75080000D01*
X192494500Y-75055000D01*
X192494500Y-75030000D01*
X192494500Y-75005000D01*
X192496500Y-74980000D01*
X192499500Y-74956000D01*
X192504500Y-74931000D01*
X192510500Y-74907000D01*
X192517500Y-74883000D01*
X192525500Y-74859000D01*
X192535500Y-74836000D01*
X192545500Y-74814000D01*
X192557500Y-74792000D01*
X192570500Y-74771000D01*
X192584500Y-74750000D01*
X192600500Y-74730000D01*
X192616500Y-74711000D01*
X192633500Y-74693000D01*
X192651500Y-74676000D01*
X192670500Y-74660000D01*
X192690500Y-74645000D01*
X192710500Y-74631000D01*
X192732500Y-74618000D01*
X192753500Y-74606000D01*
X192776500Y-74595000D01*
X192799500Y-74586000D01*
X192822500Y-74577000D01*
X192846500Y-74570000D01*
X192871500Y-74564000D01*
X192895500Y-74560000D01*
X192920500Y-74557000D01*
X192945500Y-74555000D01*
X192970500Y-74554000D01*
X193794500Y-74554000D01*
X193819500Y-74555000D01*
G37*
X188419500Y-74555000D02*
X188444500Y-74557000D01*
X188469500Y-74560000D01*
X188493500Y-74564000D01*
X188518500Y-74570000D01*
X188542500Y-74577000D01*
X188565500Y-74586000D01*
X188588500Y-74595000D01*
X188611500Y-74606000D01*
X188632500Y-74618000D01*
X188654500Y-74631000D01*
X188674500Y-74645000D01*
X188694500Y-74660000D01*
X188713500Y-74676000D01*
X188731500Y-74693000D01*
X188748500Y-74711000D01*
X188764500Y-74730000D01*
X188780500Y-74750000D01*
X188794500Y-74771000D01*
X188807500Y-74792000D01*
X188819500Y-74814000D01*
X188829500Y-74836000D01*
X188839500Y-74859000D01*
X188847500Y-74883000D01*
X188854500Y-74907000D01*
X188860500Y-74931000D01*
X188865500Y-74956000D01*
X188868500Y-74980000D01*
X188870500Y-75005000D01*
X188870500Y-75030000D01*
X188870500Y-75055000D01*
X188868500Y-75080000D01*
X188865500Y-75104000D01*
X188860500Y-75129000D01*
X188854500Y-75153000D01*
X188847500Y-75177000D01*
X188839500Y-75201000D01*
X188829500Y-75224000D01*
X188819500Y-75246000D01*
X188807500Y-75268000D01*
X188794500Y-75289000D01*
X188780500Y-75310000D01*
X188764500Y-75330000D01*
X188748500Y-75349000D01*
X188731500Y-75367000D01*
X188713500Y-75384000D01*
X188694500Y-75400000D01*
X188674500Y-75415000D01*
X188654500Y-75429000D01*
X188632500Y-75442000D01*
X188611500Y-75454000D01*
X188588500Y-75465000D01*
X188565500Y-75474000D01*
X188542500Y-75483000D01*
X188518500Y-75490000D01*
X188493500Y-75496000D01*
X188469500Y-75500000D01*
X188444500Y-75503000D01*
X188419500Y-75505000D01*
X188394500Y-75506000D01*
X187570500Y-75506000D01*
X187545500Y-75505000D01*
X187520500Y-75503000D01*
X187495500Y-75500000D01*
X187471500Y-75496000D01*
X187446500Y-75490000D01*
X187422500Y-75483000D01*
X187399500Y-75474000D01*
X187376500Y-75465000D01*
X187353500Y-75454000D01*
X187331500Y-75442000D01*
X187310500Y-75429000D01*
X187290500Y-75415000D01*
X187270500Y-75400000D01*
X187251500Y-75384000D01*
X187233500Y-75367000D01*
X187216500Y-75349000D01*
X187200500Y-75330000D01*
X187184500Y-75310000D01*
X187170500Y-75289000D01*
X187157500Y-75268000D01*
X187145500Y-75246000D01*
X187135500Y-75224000D01*
X187125500Y-75201000D01*
X187117500Y-75177000D01*
X187110500Y-75153000D01*
X187104500Y-75129000D01*
X187099500Y-75104000D01*
X187096500Y-75080000D01*
X187094500Y-75055000D01*
X187094500Y-75030000D01*
X187094500Y-75005000D01*
X187096500Y-74980000D01*
X187099500Y-74956000D01*
X187104500Y-74931000D01*
X187110500Y-74907000D01*
X187117500Y-74883000D01*
X187125500Y-74859000D01*
X187135500Y-74836000D01*
X187145500Y-74814000D01*
X187157500Y-74792000D01*
X187170500Y-74771000D01*
X187184500Y-74750000D01*
X187200500Y-74730000D01*
X187216500Y-74711000D01*
X187233500Y-74693000D01*
X187251500Y-74676000D01*
X187270500Y-74660000D01*
X187290500Y-74645000D01*
X187310500Y-74631000D01*
X187332500Y-74618000D01*
X187353500Y-74606000D01*
X187376500Y-74595000D01*
X187399500Y-74586000D01*
X187422500Y-74577000D01*
X187446500Y-74570000D01*
X187471500Y-74564000D01*
X187495500Y-74560000D01*
X187520500Y-74557000D01*
X187545500Y-74555000D01*
X187570500Y-74554000D01*
X188394500Y-74554000D01*
X188419500Y-74555000D01*
G36*
X188419500Y-74555000D02*
G01*
X188444500Y-74557000D01*
X188469500Y-74560000D01*
X188493500Y-74564000D01*
X188518500Y-74570000D01*
X188542500Y-74577000D01*
X188565500Y-74586000D01*
X188588500Y-74595000D01*
X188611500Y-74606000D01*
X188632500Y-74618000D01*
X188654500Y-74631000D01*
X188674500Y-74645000D01*
X188694500Y-74660000D01*
X188713500Y-74676000D01*
X188731500Y-74693000D01*
X188748500Y-74711000D01*
X188764500Y-74730000D01*
X188780500Y-74750000D01*
X188794500Y-74771000D01*
X188807500Y-74792000D01*
X188819500Y-74814000D01*
X188829500Y-74836000D01*
X188839500Y-74859000D01*
X188847500Y-74883000D01*
X188854500Y-74907000D01*
X188860500Y-74931000D01*
X188865500Y-74956000D01*
X188868500Y-74980000D01*
X188870500Y-75005000D01*
X188870500Y-75030000D01*
X188870500Y-75055000D01*
X188868500Y-75080000D01*
X188865500Y-75104000D01*
X188860500Y-75129000D01*
X188854500Y-75153000D01*
X188847500Y-75177000D01*
X188839500Y-75201000D01*
X188829500Y-75224000D01*
X188819500Y-75246000D01*
X188807500Y-75268000D01*
X188794500Y-75289000D01*
X188780500Y-75310000D01*
X188764500Y-75330000D01*
X188748500Y-75349000D01*
X188731500Y-75367000D01*
X188713500Y-75384000D01*
X188694500Y-75400000D01*
X188674500Y-75415000D01*
X188654500Y-75429000D01*
X188632500Y-75442000D01*
X188611500Y-75454000D01*
X188588500Y-75465000D01*
X188565500Y-75474000D01*
X188542500Y-75483000D01*
X188518500Y-75490000D01*
X188493500Y-75496000D01*
X188469500Y-75500000D01*
X188444500Y-75503000D01*
X188419500Y-75505000D01*
X188394500Y-75506000D01*
X187570500Y-75506000D01*
X187545500Y-75505000D01*
X187520500Y-75503000D01*
X187495500Y-75500000D01*
X187471500Y-75496000D01*
X187446500Y-75490000D01*
X187422500Y-75483000D01*
X187399500Y-75474000D01*
X187376500Y-75465000D01*
X187353500Y-75454000D01*
X187331500Y-75442000D01*
X187310500Y-75429000D01*
X187290500Y-75415000D01*
X187270500Y-75400000D01*
X187251500Y-75384000D01*
X187233500Y-75367000D01*
X187216500Y-75349000D01*
X187200500Y-75330000D01*
X187184500Y-75310000D01*
X187170500Y-75289000D01*
X187157500Y-75268000D01*
X187145500Y-75246000D01*
X187135500Y-75224000D01*
X187125500Y-75201000D01*
X187117500Y-75177000D01*
X187110500Y-75153000D01*
X187104500Y-75129000D01*
X187099500Y-75104000D01*
X187096500Y-75080000D01*
X187094500Y-75055000D01*
X187094500Y-75030000D01*
X187094500Y-75005000D01*
X187096500Y-74980000D01*
X187099500Y-74956000D01*
X187104500Y-74931000D01*
X187110500Y-74907000D01*
X187117500Y-74883000D01*
X187125500Y-74859000D01*
X187135500Y-74836000D01*
X187145500Y-74814000D01*
X187157500Y-74792000D01*
X187170500Y-74771000D01*
X187184500Y-74750000D01*
X187200500Y-74730000D01*
X187216500Y-74711000D01*
X187233500Y-74693000D01*
X187251500Y-74676000D01*
X187270500Y-74660000D01*
X187290500Y-74645000D01*
X187310500Y-74631000D01*
X187332500Y-74618000D01*
X187353500Y-74606000D01*
X187376500Y-74595000D01*
X187399500Y-74586000D01*
X187422500Y-74577000D01*
X187446500Y-74570000D01*
X187471500Y-74564000D01*
X187495500Y-74560000D01*
X187520500Y-74557000D01*
X187545500Y-74555000D01*
X187570500Y-74554000D01*
X188394500Y-74554000D01*
X188419500Y-74555000D01*
G37*
X194215500Y-76517000D02*
X194249500Y-76520000D01*
X194282500Y-76524000D01*
X194315500Y-76530000D01*
X194347500Y-76538000D01*
X194379500Y-76548000D01*
X194411500Y-76559000D01*
X194442500Y-76572000D01*
X194472500Y-76586000D01*
X194501500Y-76602000D01*
X194530500Y-76620000D01*
X194557500Y-76638000D01*
X194584500Y-76659000D01*
X194609500Y-76681000D01*
X194633500Y-76704000D01*
X194656500Y-76728000D01*
X194678500Y-76753000D01*
X194699500Y-76780000D01*
X194717500Y-76807000D01*
X194735500Y-76836000D01*
X194751500Y-76865000D01*
X194765500Y-76895000D01*
X194778500Y-76926000D01*
X194789500Y-76958000D01*
X194799500Y-76990000D01*
X194807500Y-77022000D01*
X194813500Y-77055000D01*
X194817500Y-77088000D01*
X194820500Y-77122000D01*
X194820500Y-77155000D01*
X194820500Y-78305000D01*
X194820500Y-78338000D01*
X194817500Y-78372000D01*
X194813500Y-78405000D01*
X194807500Y-78438000D01*
X194799500Y-78470000D01*
X194789500Y-78502000D01*
X194778500Y-78534000D01*
X194765500Y-78565000D01*
X194751500Y-78595000D01*
X194735500Y-78624000D01*
X194717500Y-78653000D01*
X194699500Y-78680000D01*
X194678500Y-78707000D01*
X194656500Y-78732000D01*
X194633500Y-78756000D01*
X194609500Y-78779000D01*
X194584500Y-78801000D01*
X194557500Y-78822000D01*
X194530500Y-78840000D01*
X194501500Y-78858000D01*
X194472500Y-78874000D01*
X194442500Y-78888000D01*
X194411500Y-78901000D01*
X194379500Y-78912000D01*
X194347500Y-78922000D01*
X194315500Y-78930000D01*
X194282500Y-78936000D01*
X194249500Y-78940000D01*
X194215500Y-78943000D01*
X194182500Y-78944000D01*
X194149500Y-78943000D01*
X194115500Y-78940000D01*
X194082500Y-78936000D01*
X194049500Y-78930000D01*
X194017500Y-78922000D01*
X193985500Y-78912000D01*
X193953500Y-78901000D01*
X193922500Y-78888000D01*
X193892500Y-78874000D01*
X193863500Y-78858000D01*
X193834500Y-78840000D01*
X193807500Y-78822000D01*
X193780500Y-78801000D01*
X193755500Y-78779000D01*
X193731500Y-78756000D01*
X193708500Y-78732000D01*
X193686500Y-78707000D01*
X193665500Y-78680000D01*
X193647500Y-78653000D01*
X193629500Y-78624000D01*
X193613500Y-78595000D01*
X193599500Y-78565000D01*
X193586500Y-78534000D01*
X193575500Y-78502000D01*
X193565500Y-78470000D01*
X193557500Y-78438000D01*
X193551500Y-78405000D01*
X193547500Y-78372000D01*
X193544500Y-78338000D01*
X193543500Y-78305000D01*
X193543500Y-77155000D01*
X193544500Y-77122000D01*
X193547500Y-77088000D01*
X193551500Y-77055000D01*
X193557500Y-77022000D01*
X193565500Y-76990000D01*
X193575500Y-76958000D01*
X193586500Y-76926000D01*
X193599500Y-76895000D01*
X193613500Y-76865000D01*
X193629500Y-76836000D01*
X193647500Y-76807000D01*
X193665500Y-76780000D01*
X193686500Y-76753000D01*
X193708500Y-76728000D01*
X193731500Y-76704000D01*
X193755500Y-76681000D01*
X193780500Y-76659000D01*
X193807500Y-76638000D01*
X193834500Y-76620000D01*
X193863500Y-76602000D01*
X193892500Y-76586000D01*
X193922500Y-76572000D01*
X193953500Y-76559000D01*
X193985500Y-76548000D01*
X194017500Y-76538000D01*
X194049500Y-76530000D01*
X194082500Y-76524000D01*
X194115500Y-76520000D01*
X194149500Y-76517000D01*
X194182500Y-76517000D01*
X194182500Y-76516500D01*
X194215500Y-76517000D01*
G36*
X194215500Y-76517000D02*
G01*
X194249500Y-76520000D01*
X194282500Y-76524000D01*
X194315500Y-76530000D01*
X194347500Y-76538000D01*
X194379500Y-76548000D01*
X194411500Y-76559000D01*
X194442500Y-76572000D01*
X194472500Y-76586000D01*
X194501500Y-76602000D01*
X194530500Y-76620000D01*
X194557500Y-76638000D01*
X194584500Y-76659000D01*
X194609500Y-76681000D01*
X194633500Y-76704000D01*
X194656500Y-76728000D01*
X194678500Y-76753000D01*
X194699500Y-76780000D01*
X194717500Y-76807000D01*
X194735500Y-76836000D01*
X194751500Y-76865000D01*
X194765500Y-76895000D01*
X194778500Y-76926000D01*
X194789500Y-76958000D01*
X194799500Y-76990000D01*
X194807500Y-77022000D01*
X194813500Y-77055000D01*
X194817500Y-77088000D01*
X194820500Y-77122000D01*
X194820500Y-77155000D01*
X194820500Y-78305000D01*
X194820500Y-78338000D01*
X194817500Y-78372000D01*
X194813500Y-78405000D01*
X194807500Y-78438000D01*
X194799500Y-78470000D01*
X194789500Y-78502000D01*
X194778500Y-78534000D01*
X194765500Y-78565000D01*
X194751500Y-78595000D01*
X194735500Y-78624000D01*
X194717500Y-78653000D01*
X194699500Y-78680000D01*
X194678500Y-78707000D01*
X194656500Y-78732000D01*
X194633500Y-78756000D01*
X194609500Y-78779000D01*
X194584500Y-78801000D01*
X194557500Y-78822000D01*
X194530500Y-78840000D01*
X194501500Y-78858000D01*
X194472500Y-78874000D01*
X194442500Y-78888000D01*
X194411500Y-78901000D01*
X194379500Y-78912000D01*
X194347500Y-78922000D01*
X194315500Y-78930000D01*
X194282500Y-78936000D01*
X194249500Y-78940000D01*
X194215500Y-78943000D01*
X194182500Y-78944000D01*
X194149500Y-78943000D01*
X194115500Y-78940000D01*
X194082500Y-78936000D01*
X194049500Y-78930000D01*
X194017500Y-78922000D01*
X193985500Y-78912000D01*
X193953500Y-78901000D01*
X193922500Y-78888000D01*
X193892500Y-78874000D01*
X193863500Y-78858000D01*
X193834500Y-78840000D01*
X193807500Y-78822000D01*
X193780500Y-78801000D01*
X193755500Y-78779000D01*
X193731500Y-78756000D01*
X193708500Y-78732000D01*
X193686500Y-78707000D01*
X193665500Y-78680000D01*
X193647500Y-78653000D01*
X193629500Y-78624000D01*
X193613500Y-78595000D01*
X193599500Y-78565000D01*
X193586500Y-78534000D01*
X193575500Y-78502000D01*
X193565500Y-78470000D01*
X193557500Y-78438000D01*
X193551500Y-78405000D01*
X193547500Y-78372000D01*
X193544500Y-78338000D01*
X193543500Y-78305000D01*
X193543500Y-77155000D01*
X193544500Y-77122000D01*
X193547500Y-77088000D01*
X193551500Y-77055000D01*
X193557500Y-77022000D01*
X193565500Y-76990000D01*
X193575500Y-76958000D01*
X193586500Y-76926000D01*
X193599500Y-76895000D01*
X193613500Y-76865000D01*
X193629500Y-76836000D01*
X193647500Y-76807000D01*
X193665500Y-76780000D01*
X193686500Y-76753000D01*
X193708500Y-76728000D01*
X193731500Y-76704000D01*
X193755500Y-76681000D01*
X193780500Y-76659000D01*
X193807500Y-76638000D01*
X193834500Y-76620000D01*
X193863500Y-76602000D01*
X193892500Y-76586000D01*
X193922500Y-76572000D01*
X193953500Y-76559000D01*
X193985500Y-76548000D01*
X194017500Y-76538000D01*
X194049500Y-76530000D01*
X194082500Y-76524000D01*
X194115500Y-76520000D01*
X194149500Y-76517000D01*
X194182500Y-76517000D01*
X194182500Y-76516500D01*
X194215500Y-76517000D01*
G37*
X187249500Y-76520000D02*
X187282500Y-76524000D01*
X187315500Y-76530000D01*
X187347500Y-76538000D01*
X187379500Y-76548000D01*
X187411500Y-76559000D01*
X187442500Y-76572000D01*
X187472500Y-76586000D01*
X187501500Y-76602000D01*
X187530500Y-76620000D01*
X187557500Y-76638000D01*
X187584500Y-76659000D01*
X187609500Y-76681000D01*
X187633500Y-76704000D01*
X187656500Y-76728000D01*
X187678500Y-76753000D01*
X187699500Y-76780000D01*
X187717500Y-76807000D01*
X187735500Y-76836000D01*
X187751500Y-76865000D01*
X187765500Y-76895000D01*
X187778500Y-76926000D01*
X187789500Y-76958000D01*
X187799500Y-76990000D01*
X187807500Y-77022000D01*
X187813500Y-77055000D01*
X187817500Y-77088000D01*
X187820500Y-77122000D01*
X187821500Y-77155000D01*
X187821000Y-77155000D01*
X187821500Y-78305000D01*
X187820500Y-78338000D01*
X187817500Y-78372000D01*
X187813500Y-78405000D01*
X187807500Y-78438000D01*
X187799500Y-78470000D01*
X187789500Y-78502000D01*
X187778500Y-78534000D01*
X187765500Y-78565000D01*
X187751500Y-78595000D01*
X187735500Y-78624000D01*
X187717500Y-78653000D01*
X187699500Y-78680000D01*
X187678500Y-78707000D01*
X187656500Y-78732000D01*
X187633500Y-78756000D01*
X187609500Y-78779000D01*
X187584500Y-78801000D01*
X187557500Y-78822000D01*
X187530500Y-78840000D01*
X187501500Y-78858000D01*
X187472500Y-78874000D01*
X187442500Y-78888000D01*
X187411500Y-78901000D01*
X187379500Y-78912000D01*
X187347500Y-78922000D01*
X187315500Y-78930000D01*
X187282500Y-78936000D01*
X187249500Y-78940000D01*
X187215500Y-78943000D01*
X187182500Y-78944000D01*
X187149500Y-78943000D01*
X187115500Y-78940000D01*
X187082500Y-78936000D01*
X187049500Y-78930000D01*
X187017500Y-78922000D01*
X186985500Y-78912000D01*
X186953500Y-78901000D01*
X186922500Y-78888000D01*
X186892500Y-78874000D01*
X186863500Y-78858000D01*
X186834500Y-78840000D01*
X186807500Y-78822000D01*
X186780500Y-78801000D01*
X186755500Y-78779000D01*
X186731500Y-78756000D01*
X186708500Y-78732000D01*
X186686500Y-78707000D01*
X186665500Y-78680000D01*
X186647500Y-78653000D01*
X186629500Y-78624000D01*
X186613500Y-78595000D01*
X186599500Y-78565000D01*
X186586500Y-78534000D01*
X186575500Y-78502000D01*
X186565500Y-78470000D01*
X186557500Y-78438000D01*
X186551500Y-78405000D01*
X186547500Y-78372000D01*
X186544500Y-78338000D01*
X186544500Y-78305000D01*
X186544500Y-77155000D01*
X186544500Y-77122000D01*
X186547500Y-77088000D01*
X186551500Y-77055000D01*
X186557500Y-77022000D01*
X186565500Y-76990000D01*
X186575500Y-76958000D01*
X186586500Y-76926000D01*
X186599500Y-76895000D01*
X186613500Y-76865000D01*
X186629500Y-76836000D01*
X186647500Y-76807000D01*
X186665500Y-76780000D01*
X186686500Y-76753000D01*
X186708500Y-76728000D01*
X186731500Y-76704000D01*
X186755500Y-76681000D01*
X186780500Y-76659000D01*
X186807500Y-76638000D01*
X186834500Y-76620000D01*
X186863500Y-76602000D01*
X186892500Y-76586000D01*
X186922500Y-76572000D01*
X186953500Y-76559000D01*
X186985500Y-76548000D01*
X187017500Y-76538000D01*
X187049500Y-76530000D01*
X187082500Y-76524000D01*
X187115500Y-76520000D01*
X187149500Y-76517000D01*
X187182500Y-76517000D01*
X187215500Y-76517000D01*
X187249500Y-76520000D01*
G36*
X187249500Y-76520000D02*
G01*
X187282500Y-76524000D01*
X187315500Y-76530000D01*
X187347500Y-76538000D01*
X187379500Y-76548000D01*
X187411500Y-76559000D01*
X187442500Y-76572000D01*
X187472500Y-76586000D01*
X187501500Y-76602000D01*
X187530500Y-76620000D01*
X187557500Y-76638000D01*
X187584500Y-76659000D01*
X187609500Y-76681000D01*
X187633500Y-76704000D01*
X187656500Y-76728000D01*
X187678500Y-76753000D01*
X187699500Y-76780000D01*
X187717500Y-76807000D01*
X187735500Y-76836000D01*
X187751500Y-76865000D01*
X187765500Y-76895000D01*
X187778500Y-76926000D01*
X187789500Y-76958000D01*
X187799500Y-76990000D01*
X187807500Y-77022000D01*
X187813500Y-77055000D01*
X187817500Y-77088000D01*
X187820500Y-77122000D01*
X187821500Y-77155000D01*
X187821000Y-77155000D01*
X187821500Y-78305000D01*
X187820500Y-78338000D01*
X187817500Y-78372000D01*
X187813500Y-78405000D01*
X187807500Y-78438000D01*
X187799500Y-78470000D01*
X187789500Y-78502000D01*
X187778500Y-78534000D01*
X187765500Y-78565000D01*
X187751500Y-78595000D01*
X187735500Y-78624000D01*
X187717500Y-78653000D01*
X187699500Y-78680000D01*
X187678500Y-78707000D01*
X187656500Y-78732000D01*
X187633500Y-78756000D01*
X187609500Y-78779000D01*
X187584500Y-78801000D01*
X187557500Y-78822000D01*
X187530500Y-78840000D01*
X187501500Y-78858000D01*
X187472500Y-78874000D01*
X187442500Y-78888000D01*
X187411500Y-78901000D01*
X187379500Y-78912000D01*
X187347500Y-78922000D01*
X187315500Y-78930000D01*
X187282500Y-78936000D01*
X187249500Y-78940000D01*
X187215500Y-78943000D01*
X187182500Y-78944000D01*
X187149500Y-78943000D01*
X187115500Y-78940000D01*
X187082500Y-78936000D01*
X187049500Y-78930000D01*
X187017500Y-78922000D01*
X186985500Y-78912000D01*
X186953500Y-78901000D01*
X186922500Y-78888000D01*
X186892500Y-78874000D01*
X186863500Y-78858000D01*
X186834500Y-78840000D01*
X186807500Y-78822000D01*
X186780500Y-78801000D01*
X186755500Y-78779000D01*
X186731500Y-78756000D01*
X186708500Y-78732000D01*
X186686500Y-78707000D01*
X186665500Y-78680000D01*
X186647500Y-78653000D01*
X186629500Y-78624000D01*
X186613500Y-78595000D01*
X186599500Y-78565000D01*
X186586500Y-78534000D01*
X186575500Y-78502000D01*
X186565500Y-78470000D01*
X186557500Y-78438000D01*
X186551500Y-78405000D01*
X186547500Y-78372000D01*
X186544500Y-78338000D01*
X186544500Y-78305000D01*
X186544500Y-77155000D01*
X186544500Y-77122000D01*
X186547500Y-77088000D01*
X186551500Y-77055000D01*
X186557500Y-77022000D01*
X186565500Y-76990000D01*
X186575500Y-76958000D01*
X186586500Y-76926000D01*
X186599500Y-76895000D01*
X186613500Y-76865000D01*
X186629500Y-76836000D01*
X186647500Y-76807000D01*
X186665500Y-76780000D01*
X186686500Y-76753000D01*
X186708500Y-76728000D01*
X186731500Y-76704000D01*
X186755500Y-76681000D01*
X186780500Y-76659000D01*
X186807500Y-76638000D01*
X186834500Y-76620000D01*
X186863500Y-76602000D01*
X186892500Y-76586000D01*
X186922500Y-76572000D01*
X186953500Y-76559000D01*
X186985500Y-76548000D01*
X187017500Y-76538000D01*
X187049500Y-76530000D01*
X187082500Y-76524000D01*
X187115500Y-76520000D01*
X187149500Y-76517000D01*
X187182500Y-76517000D01*
X187215500Y-76517000D01*
X187249500Y-76520000D01*
G37*
%TD*%
D11*
%TO.C,U6*%
X172852500Y-97975000D03*
D12*
X172852500Y-100515000D03*
X172852500Y-103055000D03*
X180472500Y-103055000D03*
X180472500Y-100515000D03*
X180472500Y-97975000D03*
%TD*%
D11*
%TO.C,U3*%
X172852500Y-88775000D03*
D12*
X172852500Y-91315000D03*
X172852500Y-93855000D03*
X180472500Y-93855000D03*
X180472500Y-91315000D03*
X180472500Y-88775000D03*
%TD*%
M02*
