%TF.GenerationSoftware,KiCad,Pcbnew,8.99.0-unknown*%
%TF.CreationDate,2024-04-30T21:24:50-04:00*%
%TF.ProjectId,reflowControl,7265666c-6f77-4436-9f6e-74726f6c2e6b,rev?*%
%TF.SameCoordinates,Original*%
%TF.FileFunction,Legend,Top*%
%TF.FilePolarity,Positive*%
%FSLAX46Y46*%
G04 Gerber Fmt 4.6, Leading zero omitted, Abs format (unit mm)*
G04 Created by KiCad (PCBNEW 8.99.0-unknown) date 2024-04-30 21:24:50*
%MOMM*%
%LPD*%
G01*
G04 APERTURE LIST*
%ADD10C,0.150000*%
%ADD11C,0.152400*%
%ADD12C,0.120000*%
G04 APERTURE END LIST*
D10*
X185758909Y-94579428D02*
X185758909Y-95055619D01*
X185425576Y-94055619D02*
X185758909Y-94579428D01*
X185758909Y-94579428D02*
X186092242Y-94055619D01*
X186949385Y-95055619D02*
X186377957Y-95055619D01*
X186663671Y-95055619D02*
X186663671Y-94055619D01*
X186663671Y-94055619D02*
X186568433Y-94198476D01*
X186568433Y-94198476D02*
X186473195Y-94293714D01*
X186473195Y-94293714D02*
X186377957Y-94341333D01*
X183669700Y-91531219D02*
X183669700Y-91769314D01*
X183431605Y-91674076D02*
X183669700Y-91769314D01*
X183669700Y-91769314D02*
X183907795Y-91674076D01*
X183526843Y-91959790D02*
X183669700Y-91769314D01*
X183669700Y-91769314D02*
X183812557Y-91959790D01*
X183669700Y-91531219D02*
X183669700Y-91769314D01*
X183431605Y-91674076D02*
X183669700Y-91769314D01*
X183669700Y-91769314D02*
X183907795Y-91674076D01*
X183526843Y-91959790D02*
X183669700Y-91769314D01*
X183669700Y-91769314D02*
X183812557Y-91959790D01*
X175900595Y-95099819D02*
X175900595Y-95909342D01*
X175900595Y-95909342D02*
X175948214Y-96004580D01*
X175948214Y-96004580D02*
X175995833Y-96052200D01*
X175995833Y-96052200D02*
X176091071Y-96099819D01*
X176091071Y-96099819D02*
X176281547Y-96099819D01*
X176281547Y-96099819D02*
X176376785Y-96052200D01*
X176376785Y-96052200D02*
X176424404Y-96004580D01*
X176424404Y-96004580D02*
X176472023Y-95909342D01*
X176472023Y-95909342D02*
X176472023Y-95099819D01*
X177376785Y-95099819D02*
X177186309Y-95099819D01*
X177186309Y-95099819D02*
X177091071Y-95147438D01*
X177091071Y-95147438D02*
X177043452Y-95195057D01*
X177043452Y-95195057D02*
X176948214Y-95337914D01*
X176948214Y-95337914D02*
X176900595Y-95528390D01*
X176900595Y-95528390D02*
X176900595Y-95909342D01*
X176900595Y-95909342D02*
X176948214Y-96004580D01*
X176948214Y-96004580D02*
X176995833Y-96052200D01*
X176995833Y-96052200D02*
X177091071Y-96099819D01*
X177091071Y-96099819D02*
X177281547Y-96099819D01*
X177281547Y-96099819D02*
X177376785Y-96052200D01*
X177376785Y-96052200D02*
X177424404Y-96004580D01*
X177424404Y-96004580D02*
X177472023Y-95909342D01*
X177472023Y-95909342D02*
X177472023Y-95671247D01*
X177472023Y-95671247D02*
X177424404Y-95576009D01*
X177424404Y-95576009D02*
X177376785Y-95528390D01*
X177376785Y-95528390D02*
X177281547Y-95480771D01*
X177281547Y-95480771D02*
X177091071Y-95480771D01*
X177091071Y-95480771D02*
X176995833Y-95528390D01*
X176995833Y-95528390D02*
X176948214Y-95576009D01*
X176948214Y-95576009D02*
X176900595Y-95671247D01*
X193600595Y-85929819D02*
X193600595Y-86739342D01*
X193600595Y-86739342D02*
X193648214Y-86834580D01*
X193648214Y-86834580D02*
X193695833Y-86882200D01*
X193695833Y-86882200D02*
X193791071Y-86929819D01*
X193791071Y-86929819D02*
X193981547Y-86929819D01*
X193981547Y-86929819D02*
X194076785Y-86882200D01*
X194076785Y-86882200D02*
X194124404Y-86834580D01*
X194124404Y-86834580D02*
X194172023Y-86739342D01*
X194172023Y-86739342D02*
X194172023Y-85929819D01*
X195124404Y-85929819D02*
X194648214Y-85929819D01*
X194648214Y-85929819D02*
X194600595Y-86406009D01*
X194600595Y-86406009D02*
X194648214Y-86358390D01*
X194648214Y-86358390D02*
X194743452Y-86310771D01*
X194743452Y-86310771D02*
X194981547Y-86310771D01*
X194981547Y-86310771D02*
X195076785Y-86358390D01*
X195076785Y-86358390D02*
X195124404Y-86406009D01*
X195124404Y-86406009D02*
X195172023Y-86501247D01*
X195172023Y-86501247D02*
X195172023Y-86739342D01*
X195172023Y-86739342D02*
X195124404Y-86834580D01*
X195124404Y-86834580D02*
X195076785Y-86882200D01*
X195076785Y-86882200D02*
X194981547Y-86929819D01*
X194981547Y-86929819D02*
X194743452Y-86929819D01*
X194743452Y-86929819D02*
X194648214Y-86882200D01*
X194648214Y-86882200D02*
X194600595Y-86834580D01*
X192200595Y-96504819D02*
X192200595Y-97314342D01*
X192200595Y-97314342D02*
X192248214Y-97409580D01*
X192248214Y-97409580D02*
X192295833Y-97457200D01*
X192295833Y-97457200D02*
X192391071Y-97504819D01*
X192391071Y-97504819D02*
X192581547Y-97504819D01*
X192581547Y-97504819D02*
X192676785Y-97457200D01*
X192676785Y-97457200D02*
X192724404Y-97409580D01*
X192724404Y-97409580D02*
X192772023Y-97314342D01*
X192772023Y-97314342D02*
X192772023Y-96504819D01*
X193676785Y-96838152D02*
X193676785Y-97504819D01*
X193438690Y-96457200D02*
X193200595Y-97171485D01*
X193200595Y-97171485D02*
X193819642Y-97171485D01*
X175900595Y-85899819D02*
X175900595Y-86709342D01*
X175900595Y-86709342D02*
X175948214Y-86804580D01*
X175948214Y-86804580D02*
X175995833Y-86852200D01*
X175995833Y-86852200D02*
X176091071Y-86899819D01*
X176091071Y-86899819D02*
X176281547Y-86899819D01*
X176281547Y-86899819D02*
X176376785Y-86852200D01*
X176376785Y-86852200D02*
X176424404Y-86804580D01*
X176424404Y-86804580D02*
X176472023Y-86709342D01*
X176472023Y-86709342D02*
X176472023Y-85899819D01*
X176852976Y-85899819D02*
X177472023Y-85899819D01*
X177472023Y-85899819D02*
X177138690Y-86280771D01*
X177138690Y-86280771D02*
X177281547Y-86280771D01*
X177281547Y-86280771D02*
X177376785Y-86328390D01*
X177376785Y-86328390D02*
X177424404Y-86376009D01*
X177424404Y-86376009D02*
X177472023Y-86471247D01*
X177472023Y-86471247D02*
X177472023Y-86709342D01*
X177472023Y-86709342D02*
X177424404Y-86804580D01*
X177424404Y-86804580D02*
X177376785Y-86852200D01*
X177376785Y-86852200D02*
X177281547Y-86899819D01*
X177281547Y-86899819D02*
X176995833Y-86899819D01*
X176995833Y-86899819D02*
X176900595Y-86852200D01*
X176900595Y-86852200D02*
X176852976Y-86804580D01*
X177690595Y-71479819D02*
X177690595Y-72289342D01*
X177690595Y-72289342D02*
X177738214Y-72384580D01*
X177738214Y-72384580D02*
X177785833Y-72432200D01*
X177785833Y-72432200D02*
X177881071Y-72479819D01*
X177881071Y-72479819D02*
X178071547Y-72479819D01*
X178071547Y-72479819D02*
X178166785Y-72432200D01*
X178166785Y-72432200D02*
X178214404Y-72384580D01*
X178214404Y-72384580D02*
X178262023Y-72289342D01*
X178262023Y-72289342D02*
X178262023Y-71479819D01*
X178690595Y-71575057D02*
X178738214Y-71527438D01*
X178738214Y-71527438D02*
X178833452Y-71479819D01*
X178833452Y-71479819D02*
X179071547Y-71479819D01*
X179071547Y-71479819D02*
X179166785Y-71527438D01*
X179166785Y-71527438D02*
X179214404Y-71575057D01*
X179214404Y-71575057D02*
X179262023Y-71670295D01*
X179262023Y-71670295D02*
X179262023Y-71765533D01*
X179262023Y-71765533D02*
X179214404Y-71908390D01*
X179214404Y-71908390D02*
X178642976Y-72479819D01*
X178642976Y-72479819D02*
X179262023Y-72479819D01*
X185473195Y-88788419D02*
X185473195Y-89597942D01*
X185473195Y-89597942D02*
X185520814Y-89693180D01*
X185520814Y-89693180D02*
X185568433Y-89740800D01*
X185568433Y-89740800D02*
X185663671Y-89788419D01*
X185663671Y-89788419D02*
X185854147Y-89788419D01*
X185854147Y-89788419D02*
X185949385Y-89740800D01*
X185949385Y-89740800D02*
X185997004Y-89693180D01*
X185997004Y-89693180D02*
X186044623Y-89597942D01*
X186044623Y-89597942D02*
X186044623Y-88788419D01*
X187044623Y-89788419D02*
X186473195Y-89788419D01*
X186758909Y-89788419D02*
X186758909Y-88788419D01*
X186758909Y-88788419D02*
X186663671Y-88931276D01*
X186663671Y-88931276D02*
X186568433Y-89026514D01*
X186568433Y-89026514D02*
X186473195Y-89074133D01*
X183669700Y-86264019D02*
X183669700Y-86502114D01*
X183431605Y-86406876D02*
X183669700Y-86502114D01*
X183669700Y-86502114D02*
X183907795Y-86406876D01*
X183526843Y-86692590D02*
X183669700Y-86502114D01*
X183669700Y-86502114D02*
X183812557Y-86692590D01*
X183669700Y-86264019D02*
X183669700Y-86502114D01*
X183431605Y-86406876D02*
X183669700Y-86502114D01*
X183669700Y-86502114D02*
X183907795Y-86406876D01*
X183526843Y-86692590D02*
X183669700Y-86502114D01*
X183669700Y-86502114D02*
X183812557Y-86692590D01*
X193524166Y-72399819D02*
X193524166Y-73114104D01*
X193524166Y-73114104D02*
X193476547Y-73256961D01*
X193476547Y-73256961D02*
X193381309Y-73352200D01*
X193381309Y-73352200D02*
X193238452Y-73399819D01*
X193238452Y-73399819D02*
X193143214Y-73399819D01*
X194524166Y-73399819D02*
X193952738Y-73399819D01*
X194238452Y-73399819D02*
X194238452Y-72399819D01*
X194238452Y-72399819D02*
X194143214Y-72542676D01*
X194143214Y-72542676D02*
X194047976Y-72637914D01*
X194047976Y-72637914D02*
X193952738Y-72685533D01*
X184315833Y-100424580D02*
X184268214Y-100472200D01*
X184268214Y-100472200D02*
X184125357Y-100519819D01*
X184125357Y-100519819D02*
X184030119Y-100519819D01*
X184030119Y-100519819D02*
X183887262Y-100472200D01*
X183887262Y-100472200D02*
X183792024Y-100376961D01*
X183792024Y-100376961D02*
X183744405Y-100281723D01*
X183744405Y-100281723D02*
X183696786Y-100091247D01*
X183696786Y-100091247D02*
X183696786Y-99948390D01*
X183696786Y-99948390D02*
X183744405Y-99757914D01*
X183744405Y-99757914D02*
X183792024Y-99662676D01*
X183792024Y-99662676D02*
X183887262Y-99567438D01*
X183887262Y-99567438D02*
X184030119Y-99519819D01*
X184030119Y-99519819D02*
X184125357Y-99519819D01*
X184125357Y-99519819D02*
X184268214Y-99567438D01*
X184268214Y-99567438D02*
X184315833Y-99615057D01*
X185172976Y-99853152D02*
X185172976Y-100519819D01*
X184934881Y-99472200D02*
X184696786Y-100186485D01*
X184696786Y-100186485D02*
X185315833Y-100186485D01*
X184315833Y-97414580D02*
X184268214Y-97462200D01*
X184268214Y-97462200D02*
X184125357Y-97509819D01*
X184125357Y-97509819D02*
X184030119Y-97509819D01*
X184030119Y-97509819D02*
X183887262Y-97462200D01*
X183887262Y-97462200D02*
X183792024Y-97366961D01*
X183792024Y-97366961D02*
X183744405Y-97271723D01*
X183744405Y-97271723D02*
X183696786Y-97081247D01*
X183696786Y-97081247D02*
X183696786Y-96938390D01*
X183696786Y-96938390D02*
X183744405Y-96747914D01*
X183744405Y-96747914D02*
X183792024Y-96652676D01*
X183792024Y-96652676D02*
X183887262Y-96557438D01*
X183887262Y-96557438D02*
X184030119Y-96509819D01*
X184030119Y-96509819D02*
X184125357Y-96509819D01*
X184125357Y-96509819D02*
X184268214Y-96557438D01*
X184268214Y-96557438D02*
X184315833Y-96605057D01*
X184649167Y-96509819D02*
X185268214Y-96509819D01*
X185268214Y-96509819D02*
X184934881Y-96890771D01*
X184934881Y-96890771D02*
X185077738Y-96890771D01*
X185077738Y-96890771D02*
X185172976Y-96938390D01*
X185172976Y-96938390D02*
X185220595Y-96986009D01*
X185220595Y-96986009D02*
X185268214Y-97081247D01*
X185268214Y-97081247D02*
X185268214Y-97319342D01*
X185268214Y-97319342D02*
X185220595Y-97414580D01*
X185220595Y-97414580D02*
X185172976Y-97462200D01*
X185172976Y-97462200D02*
X185077738Y-97509819D01*
X185077738Y-97509819D02*
X184792024Y-97509819D01*
X184792024Y-97509819D02*
X184696786Y-97462200D01*
X184696786Y-97462200D02*
X184649167Y-97414580D01*
X187685833Y-83774580D02*
X187638214Y-83822200D01*
X187638214Y-83822200D02*
X187495357Y-83869819D01*
X187495357Y-83869819D02*
X187400119Y-83869819D01*
X187400119Y-83869819D02*
X187257262Y-83822200D01*
X187257262Y-83822200D02*
X187162024Y-83726961D01*
X187162024Y-83726961D02*
X187114405Y-83631723D01*
X187114405Y-83631723D02*
X187066786Y-83441247D01*
X187066786Y-83441247D02*
X187066786Y-83298390D01*
X187066786Y-83298390D02*
X187114405Y-83107914D01*
X187114405Y-83107914D02*
X187162024Y-83012676D01*
X187162024Y-83012676D02*
X187257262Y-82917438D01*
X187257262Y-82917438D02*
X187400119Y-82869819D01*
X187400119Y-82869819D02*
X187495357Y-82869819D01*
X187495357Y-82869819D02*
X187638214Y-82917438D01*
X187638214Y-82917438D02*
X187685833Y-82965057D01*
X188066786Y-82965057D02*
X188114405Y-82917438D01*
X188114405Y-82917438D02*
X188209643Y-82869819D01*
X188209643Y-82869819D02*
X188447738Y-82869819D01*
X188447738Y-82869819D02*
X188542976Y-82917438D01*
X188542976Y-82917438D02*
X188590595Y-82965057D01*
X188590595Y-82965057D02*
X188638214Y-83060295D01*
X188638214Y-83060295D02*
X188638214Y-83155533D01*
X188638214Y-83155533D02*
X188590595Y-83298390D01*
X188590595Y-83298390D02*
X188019167Y-83869819D01*
X188019167Y-83869819D02*
X188638214Y-83869819D01*
X187685833Y-81264580D02*
X187638214Y-81312200D01*
X187638214Y-81312200D02*
X187495357Y-81359819D01*
X187495357Y-81359819D02*
X187400119Y-81359819D01*
X187400119Y-81359819D02*
X187257262Y-81312200D01*
X187257262Y-81312200D02*
X187162024Y-81216961D01*
X187162024Y-81216961D02*
X187114405Y-81121723D01*
X187114405Y-81121723D02*
X187066786Y-80931247D01*
X187066786Y-80931247D02*
X187066786Y-80788390D01*
X187066786Y-80788390D02*
X187114405Y-80597914D01*
X187114405Y-80597914D02*
X187162024Y-80502676D01*
X187162024Y-80502676D02*
X187257262Y-80407438D01*
X187257262Y-80407438D02*
X187400119Y-80359819D01*
X187400119Y-80359819D02*
X187495357Y-80359819D01*
X187495357Y-80359819D02*
X187638214Y-80407438D01*
X187638214Y-80407438D02*
X187685833Y-80455057D01*
X188638214Y-81359819D02*
X188066786Y-81359819D01*
X188352500Y-81359819D02*
X188352500Y-80359819D01*
X188352500Y-80359819D02*
X188257262Y-80502676D01*
X188257262Y-80502676D02*
X188162024Y-80597914D01*
X188162024Y-80597914D02*
X188066786Y-80645533D01*
D11*
%TO.C,Y1*%
X184558700Y-96277200D02*
X187911500Y-96277200D01*
X187911500Y-92924400D02*
X184558700Y-92924400D01*
D12*
%TO.C,U6*%
X174012500Y-96645000D02*
X174012500Y-104385000D01*
X174012500Y-104385000D02*
X179312500Y-104385000D01*
X175662500Y-96645000D02*
X174012500Y-96645000D01*
X179312500Y-96645000D02*
X177662500Y-96645000D01*
X179312500Y-104385000D02*
X179312500Y-96645000D01*
X177662500Y-96645000D02*
G75*
G02*
X175662500Y-96645000I-1000000J0D01*
G01*
D10*
%TO.C,U5*%
X192287500Y-87400000D02*
X196437500Y-87400000D01*
X192287500Y-88510000D02*
X192287500Y-87400000D01*
X192287500Y-96350000D02*
X192287500Y-95240000D01*
X192287500Y-96350000D02*
X196437500Y-96350000D01*
X196437500Y-87400000D02*
X196437500Y-88510000D01*
X196437500Y-96350000D02*
X196437500Y-95240000D01*
D12*
X191725000Y-88510000D02*
X191485000Y-88180000D01*
X191965000Y-88180000D01*
X191725000Y-88510000D01*
G36*
X191725000Y-88510000D02*
G01*
X191485000Y-88180000D01*
X191965000Y-88180000D01*
X191725000Y-88510000D01*
G37*
%TO.C,U4*%
X192962500Y-97890000D02*
X192162500Y-97890000D01*
X192962500Y-97890000D02*
X193762500Y-97890000D01*
X192962500Y-101010000D02*
X192162500Y-101010000D01*
X192962500Y-101010000D02*
X193762500Y-101010000D01*
X191662500Y-97940000D02*
X191422500Y-97610000D01*
X191902500Y-97610000D01*
X191662500Y-97940000D01*
G36*
X191662500Y-97940000D02*
G01*
X191422500Y-97610000D01*
X191902500Y-97610000D01*
X191662500Y-97940000D01*
G37*
%TO.C,U3*%
X174012500Y-87445000D02*
X174012500Y-95185000D01*
X174012500Y-95185000D02*
X179312500Y-95185000D01*
X175662500Y-87445000D02*
X174012500Y-87445000D01*
X179312500Y-87445000D02*
X177662500Y-87445000D01*
X179312500Y-95185000D02*
X179312500Y-87445000D01*
X177662500Y-87445000D02*
G75*
G02*
X175662500Y-87445000I-1000000J0D01*
G01*
D10*
%TO.C,U2*%
X173277500Y-74300000D02*
X173277500Y-74915000D01*
X173277500Y-74300000D02*
X173952500Y-74300000D01*
X173277500Y-84650000D02*
X173277500Y-83975000D01*
X173277500Y-84650000D02*
X173952500Y-84650000D01*
X183627500Y-74300000D02*
X182952500Y-74300000D01*
X183627500Y-74300000D02*
X183627500Y-74975000D01*
X183627500Y-84650000D02*
X182952500Y-84650000D01*
X183627500Y-84650000D02*
X183627500Y-83975000D01*
D12*
X172592500Y-74935000D02*
X172252500Y-74465000D01*
X172932500Y-74465000D01*
X172592500Y-74935000D01*
G36*
X172592500Y-74935000D02*
G01*
X172252500Y-74465000D01*
X172932500Y-74465000D01*
X172592500Y-74935000D01*
G37*
D11*
%TO.C,U1*%
X184558700Y-91010000D02*
X187911500Y-91010000D01*
X187911500Y-87657200D02*
X184558700Y-87657200D01*
D10*
%TO.C,J1*%
X188982500Y-73525000D02*
X189782500Y-73525000D01*
X189782500Y-73525000D02*
X189382500Y-72825000D01*
X189382500Y-72825000D02*
X188982500Y-73525000D01*
X186782500Y-79580000D02*
X186782500Y-79157000D01*
X194582500Y-79580000D02*
X194582500Y-79157000D01*
X194582500Y-79580000D02*
X186782500Y-79580000D01*
D12*
%TO.C,C4*%
X184221248Y-101010000D02*
X184743752Y-101010000D01*
X184221248Y-102480000D02*
X184743752Y-102480000D01*
%TO.C,C3*%
X184221248Y-98000000D02*
X184743752Y-98000000D01*
X184221248Y-99470000D02*
X184743752Y-99470000D01*
%TO.C,C2*%
X187706233Y-84335000D02*
X187998767Y-84335000D01*
X187706233Y-85355000D02*
X187998767Y-85355000D01*
%TO.C,C1*%
X187706233Y-81825000D02*
X187998767Y-81825000D01*
X187706233Y-82845000D02*
X187998767Y-82845000D01*
%TD*%
M02*
